<?xml version="1.0"?>
<svg width="173.589" height="127.316" xmlns="http://www.w3.org/2000/svg" xmlns:svg="http://www.w3.org/2000/svg">
 <g class="layer">
  <title>Layer 1</title>
  <g id="svg_1">
   <rect fill="#009688" height="127.32" id="svg_2" opacity="0.14" rx="10" stroke="#009688" width="173.14" x="0.45" y="0"/>
   <path d="m13.29,2.57a10.27,10.27 0 0 0 -10.27,10.27l0,101.64a10.27,10.27 0 0 0 10.27,10.27l147.46,0a10.27,10.27 0 0 0 10.27,-10.27l0,-101.64a10.27,10.27 0 0 0 -10.27,-10.27l-147.46,0zm0,-2.57l147.46,0a12.84,12.84 0 0 1 12.84,12.84l0,101.64a12.84,12.84 0 0 1 -12.84,12.84l-147.46,0a12.84,12.84 0 0 1 -12.84,-12.84l0,-101.64a12.84,12.84 0 0 1 12.84,-12.84z" fill="#009688" id="svg_3" stroke="#009688"/>
  </g>
  <path d="m12.84,0l147.47,0a12.84,12.84 0 0 1 12.84,12.84l0,19.75l-173.15,0l0,-19.75a12.84,12.84 0 0 1 12.84,-12.84z" fill="#009688" fill-rule="evenodd" id="svg_4" transform="matrix(1 0 0 1 0 0)"/>
  <path d="m33.56,45.84l10.14,0a2.57,2.57 0 0 1 2.57,2.57l0,10.14a2.57,2.57 0 0 1 -2.57,2.57l-10.14,0a2.57,2.57 0 0 1 -2.57,-2.57l0,-10.14a2.57,2.57 0 0 1 2.57,-2.57zm0,23.42l10.14,0a2.57,2.57 0 0 1 2.57,2.57l0,10.14a2.57,2.57 0 0 1 -2.57,2.57l-10.14,0a2.57,2.57 0 0 1 -2.57,-2.57l0,-10.14a2.57,2.57 0 0 1 2.57,-2.57zm0,23.43l10.14,0a2.57,2.57 0 0 1 2.57,2.57l0,10.14a2.57,2.57 0 0 1 -2.57,2.57l-10.14,0a2.57,2.57 0 0 1 -2.57,-2.57l0,-10.14a2.57,2.57 0 0 1 2.57,-2.57z" fill="#009688" fill-rule="evenodd" id="svg_5" transform="matrix(1 0 0 1 0 0)"/>
  <path d="m57,45.84l10.14,0a2.57,2.57 0 0 1 2.57,2.57l0,10.14a2.57,2.57 0 0 1 -2.57,2.57l-10.14,0a2.57,2.57 0 0 1 -2.57,-2.57l0,-10.14a2.57,2.57 0 0 1 2.57,-2.57zm0,23.42l10.14,0a2.57,2.57 0 0 1 2.57,2.57l0,10.14a2.57,2.57 0 0 1 -2.57,2.57l-10.14,0a2.57,2.57 0 0 1 -2.57,-2.57l0,-10.14a2.57,2.57 0 0 1 2.57,-2.57zm0,23.43l10.14,0a2.57,2.57 0 0 1 2.57,2.57l0,10.14a2.57,2.57 0 0 1 -2.57,2.57l-10.14,0a2.57,2.57 0 0 1 -2.57,-2.57l0,-10.14a2.57,2.57 0 0 1 2.57,-2.57z" fill="#009688" fill-rule="evenodd" id="svg_6" transform="matrix(1 0 0 1 0 0)"/>
  <path d="m80.42,45.84l10.14,0a2.57,2.57 0 0 1 2.57,2.57l0,10.14a2.57,2.57 0 0 1 -2.57,2.57l-10.14,0a2.57,2.57 0 0 1 -2.57,-2.57l0,-10.14a2.57,2.57 0 0 1 2.57,-2.57zm0,23.42l10.14,0a2.57,2.57 0 0 1 2.57,2.57l0,10.14a2.57,2.57 0 0 1 -2.57,2.57l-10.14,0a2.57,2.57 0 0 1 -2.57,-2.57l0,-10.14a2.57,2.57 0 0 1 2.57,-2.57zm0,23.43l10.14,0a2.57,2.57 0 0 1 2.57,2.57l0,10.14a2.57,2.57 0 0 1 -2.57,2.57l-10.14,0a2.57,2.57 0 0 1 -2.57,-2.57l0,-10.14a2.57,2.57 0 0 1 2.57,-2.57z" fill="#00b9a7" fill-rule="evenodd" id="svg_7" transform="matrix(1 0 0 1 0 0)"/>
  <path d="m103.85,45.84l10.14,0a2.57,2.57 0 0 1 2.57,2.57l0,10.14a2.57,2.57 0 0 1 -2.57,2.57l-10.14,0a2.57,2.57 0 0 1 -2.57,-2.57l0,-10.14a2.57,2.57 0 0 1 2.57,-2.57zm0,23.42l10.14,0a2.57,2.57 0 0 1 2.57,2.57l0,10.14a2.57,2.57 0 0 1 -2.57,2.57l-10.14,0a2.57,2.57 0 0 1 -2.57,-2.57l0,-10.14a2.57,2.57 0 0 1 2.57,-2.57zm0,23.43l10.14,0a2.57,2.57 0 0 1 2.57,2.57l0,10.14a2.57,2.57 0 0 1 -2.57,2.57l-10.14,0a2.57,2.57 0 0 1 -2.57,-2.57l0,-10.14a2.57,2.57 0 0 1 2.57,-2.57z" fill="#00b9a7" fill-opacity="0.6" fill-rule="evenodd" id="svg_8" transform="matrix(1 0 0 1 0 0)"/>
  <path d="m127.27,45.84l10.14,0a2.57,2.57 0 0 1 2.57,2.57l0,10.14a2.57,2.57 0 0 1 -2.57,2.57l-10.14,0a2.57,2.57 0 0 1 -2.57,-2.57l0,-10.14a2.57,2.57 0 0 1 2.57,-2.57zm0,23.42l10.14,0a2.57,2.57 0 0 1 2.57,2.57l0,10.14a2.57,2.57 0 0 1 -2.57,2.57l-10.14,0a2.57,2.57 0 0 1 -2.57,-2.57l0,-10.14a2.57,2.57 0 0 1 2.57,-2.57zm0,23.43l10.14,0a2.57,2.57 0 0 1 2.57,2.57l0,10.14a2.57,2.57 0 0 1 -2.57,2.57l-10.14,0a2.57,2.57 0 0 1 -2.57,-2.57l0,-10.14a2.57,2.57 0 0 1 2.57,-2.57z" fill="#00b9a7" fill-opacity="0.2" fill-rule="evenodd" id="svg_9"/>
  <path d="m30.61,15.52a6.93,6.93 0 0 1 3.22,-5.87l0,-9.65l7.51,0l0,9.71a6.93,6.93 0 1 1 -10.73,5.8l0,0.01zm86.8,0a6.93,6.93 0 0 1 3.2,-5.87l0,-9.65l7.53,0l0,9.71a6.93,6.93 0 1 1 -10.74,5.8l0.01,0.01z" fill="#fff" id="svg_10" transform="translate(8.691)"/>
 </g>
</svg>