<svg xmlns="http://www.w3.org/2000/svg" width="182.397" height="129.319" viewBox="0 0 182.397 129.319"><g transform="translate(0.001 0.998)"><rect width="15.134" height="6.837" rx="2" transform="translate(145.109 15.628)" fill="#be8d5a"/><path d="M84.418,20.62,66.45,41.334,77.7,53.255l19.779-16.3Z" transform="translate(30.16 9.499)" fill="#fff" fill-rule="evenodd"/><path d="M148.762,20.9c23.548,0,30.137,13.732,31.963,20.466a20.305,20.305,0,0,1,.672,5.3V97.521c0,28.384-31.218,29.8-31.218,29.8H35.256c-22.643,0-27.843-8.473-31.641-15.061A20.305,20.305,0,0,1,1,102.108V43.676a18.6,18.6,0,0,1,1.169-6.062,20.115,20.115,0,0,1,.716-1.9c3.009-8.37,12.914-17.427,30.955-16.23,14.433.964,20.393-3.3,22.716-6.135,16.361-16.843,52.472-18.377,70.922-.95,9.247,9.247,22.555,8.517,22.555,8.517" transform="translate(0 0)" fill="rgba(190,141,90,0.14)" stroke="#be8d5a" stroke-width="2" fill-rule="evenodd"/><rect width="16.42" height="8.21" rx="2.81" transform="translate(21.379 34.18)" fill="#be8d5a"/><g transform="translate(47.98 20.507)"><circle cx="44.467" cy="44.467" r="44.467" transform="translate(0 0)" fill="#be8d5a"/><g transform="translate(8.21 8.21)"><circle cx="36.403" cy="36.403" r="36.403" transform="translate(0 0)" fill="#f7faff"/><circle cx="27.887" cy="27.887" r="27.887" transform="translate(8.517 8.517)" fill="#be8d5a"/><path d="M33.669,14.047c1.548-1.212,4.119-.5,6.457,2.483s2.5,5.785.964,7-4.236.365-6.559-2.629-2.41-5.653-.862-6.866v.015Z" transform="translate(15.035 6.214)" fill="#fff" fill-rule="evenodd"/></g></g></g></svg>