<?xml version="1.0"?>
<svg width="158.737" height="176.526" xmlns="http://www.w3.org/2000/svg" xmlns:svg="http://www.w3.org/2000/svg">
 <g class="layer">
  <title>Layer 1</title>
  <g fill-opacity="0.5" id="svg_1" transform="matrix(1 0 0 1 0 0)">
   <rect fill="#00b9a7" height="51.47" id="svg_2" opacity="0.35" rx="2.38" width="138.29" x="7.14" y="9"/>
   <path d="m41.82,12.37l72.22,0a1.92,1.92 0 0 1 0,3.84l-72.22,0a1.92,1.92 0 0 1 0,-3.84zm0.05,7.7l57.14,0a1.92,1.92 0 0 1 0,3.84l-57.14,0a1.92,1.92 0 1 1 0,-3.84zm14.63,18.8l24.59,0a1.92,1.92 0 0 1 0,3.84l-24.59,0a1.92,1.92 0 1 1 0,-3.84zm-10.25,11.54a6.15,6.15 0 1 1 6.15,-6.15a6.15,6.15 0 0 1 -6.15,6.15zm10.27,-4.62l13.83,0a1.92,1.92 0 0 1 0,3.84l-13.83,0a1.92,1.92 0 0 1 0,-3.84z" fill="#00b9a7" fill-rule="evenodd" id="svg_3" transform="translate(21.704 2.233)"/>
   <rect fill="#00b9a7" height="39.95" id="svg_4" rx="1.19" transform="translate(5.436 5.154)" width="43.79" x="7.14" y="9"/>
   <path d="m34.35,22.45l-4.63,0l-0.93,-1.58a0.5,0.5 0 0 0 -0.45,-0.25l-2.9,0a0.5,0.5 0 0 0 -0.43,0.25l-0.93,1.58l-1.54,0l0,-0.35a0.5,0.5 0 0 0 -0.5,-0.5l-1.87,0a0.5,0.5 0 0 0 -0.5,0.5l0,0.33l-0.22,0a1.28,1.28 0 0 0 -1.28,1.28l0,9.21a1.28,1.28 0 0 0 1.28,1.28l14.91,0a1.28,1.28 0 0 0 1.27,-1.28l0,-9.21a1.28,1.28 0 0 0 -1.27,-1.26l-0.01,0zm-7.47,9.49a3.62,3.62 0 1 1 3.62,-3.62a3.62,3.62 0 0 1 -3.62,3.62zm6.67,-6.88l-1.6,0a0.5,0.5 0 1 1 0,-1l1.6,0a0.5,0.5 0 1 1 0,1z" fill="#00b9a7" id="svg_5" opacity="0.35" transform="translate(7.308 7.698)"/>
   <circle cx="9.67" cy="11.53" fill="#00b9a7" id="svg_6" opacity="0.35" r="2.53" transform="translate(24.522 24.489)"/>
  </g>
  <g fill-opacity="0.5" id="svg_13">
   <rect fill="#00b9a7" height="51.47" id="svg_14" opacity="0.35" rx="2.38" width="138.29" x="8.14" y="119.05"/>
   <path d="m42.82,122.42l72.22,0a1.92,1.92 0 0 1 0,3.84l-72.22,0a1.92,1.92 0 0 1 0,-3.84zm0.05,7.7l57.14,0a1.92,1.92 0 0 1 0,3.84l-57.14,0a1.92,1.92 0 1 1 0,-3.84zm14.63,18.8l24.59,0a1.92,1.92 0 0 1 0,3.84l-24.59,0a1.92,1.92 0 1 1 0,-3.84zm-10.25,11.54a6.15,6.15 0 1 1 6.15,-6.15a6.15,6.15 0 0 1 -6.15,6.15zm10.27,-4.62l13.83,0a1.92,1.92 0 0 1 0,3.84l-13.83,0a1.92,1.92 0 0 1 0,-3.84z" fill="#00b9a7" fill-rule="evenodd" id="svg_15" transform="translate(21.704 2.233)"/>
   <rect fill="#00b9a7" height="39.95" id="svg_16" rx="1.19" transform="translate(5.436 5.154)" width="43.79" x="8.14" y="119.05"/>
   <path d="m35.35,132.5l-4.63,0l-0.93,-1.58a0.5,0.5 0 0 0 -0.45,-0.25l-2.9,0a0.5,0.5 0 0 0 -0.43,0.25l-0.93,1.58l-1.54,0l0,-0.35a0.5,0.5 0 0 0 -0.5,-0.5l-1.87,0a0.5,0.5 0 0 0 -0.5,0.5l0,0.33l-0.22,0a1.28,1.28 0 0 0 -1.28,1.28l0,9.21a1.28,1.28 0 0 0 1.28,1.28l14.91,0a1.28,1.28 0 0 0 1.27,-1.28l0,-9.21a1.28,1.28 0 0 0 -1.27,-1.26l-0.01,0zm-7.47,9.49a3.62,3.62 0 1 1 3.62,-3.62a3.62,3.62 0 0 1 -3.62,3.62zm6.67,-6.88l-1.6,0a0.5,0.5 0 1 1 0,-1l1.6,0a0.5,0.5 0 1 1 0,1z" fill="#00b9a7" id="svg_17" opacity="0.35" transform="translate(7.308 7.698)"/>
   <circle cx="10.67" cy="121.58" fill="#00b9a7" id="svg_18" opacity="0.35" r="2.53" transform="translate(24.522 24.489)"/>
  </g>
  <g id="svg_19" transform="matrix(1 0 0 1 0 0)">
   <rect fill="#009688" height="51.47" id="svg_20" opacity="0.35" rx="2.38" width="138.29" x="8.84" y="65.65"/>
   <path d="m43.52,69.02l72.22,0a1.92,1.92 0 0 1 0,3.84l-72.22,0a1.92,1.92 0 0 1 0,-3.84zm0.05,7.7l57.14,0a1.92,1.92 0 0 1 0,3.84l-57.14,0a1.92,1.92 0 1 1 0,-3.84zm14.63,18.8l24.59,0a1.92,1.92 0 0 1 0,3.84l-24.59,0a1.92,1.92 0 1 1 0,-3.84zm-10.25,11.54a6.15,6.15 0 1 1 6.15,-6.15a6.15,6.15 0 0 1 -6.15,6.15zm10.27,-4.62l13.83,0a1.92,1.92 0 0 1 0,3.84l-13.83,0a1.92,1.92 0 0 1 0,-3.84z" fill="#009688" fill-rule="evenodd" id="svg_21" transform="translate(21.704 2.233)"/>
   <rect fill="#009688" height="39.95" id="svg_22" rx="1.19" transform="translate(5.436 5.154)" width="43.79" x="8.84" y="65.65"/>
   <path d="m36.05,79.1l-4.63,0l-0.93,-1.58a0.5,0.5 0 0 0 -0.45,-0.25l-2.9,0a0.5,0.5 0 0 0 -0.43,0.25l-0.93,1.58l-1.54,0l0,-0.35a0.5,0.5 0 0 0 -0.5,-0.5l-1.87,0a0.5,0.5 0 0 0 -0.5,0.5l0,0.33l-0.22,0a1.28,1.28 0 0 0 -1.28,1.28l0,9.21a1.28,1.28 0 0 0 1.28,1.28l14.91,0a1.28,1.28 0 0 0 1.27,-1.28l0,-9.21a1.28,1.28 0 0 0 -1.27,-1.26l-0.01,0zm-7.47,9.49a3.62,3.62 0 1 1 3.62,-3.62a3.62,3.62 0 0 1 -3.62,3.62zm6.67,-6.88l-1.6,0a0.5,0.5 0 1 1 0,-1l1.6,0a0.5,0.5 0 1 1 0,1z" fill="#009688" id="svg_23" opacity="0.35" transform="translate(7.308 7.698)"/>
   <circle cx="11.37" cy="68.17" fill="#009688" id="svg_24" opacity="0.35" r="2.53" transform="translate(24.522 24.489)"/>
  </g>
 </g>
</svg>